<svg width="40" height="40" viewBox="0 0 40 40" fill="none" xmlns="http://www.w3.org/2000/svg">
<rect opacity="0.1" width="40" height="40" rx="5" fill="#41F5C0"/>
<path d="M26.3639 24.1179C25.8759 23.6299 25.1468 23.5267 24.5565 23.8079L23.7224 22.9739C23.5014 23.2502 23.2502 23.5014 22.9738 23.7226L23.8078 24.5566C23.5266 25.1469 23.6297 25.8759 24.1178 26.364C24.737 26.9831 25.7446 26.9832 26.3639 26.364C26.9831 25.7447 26.9831 24.7371 26.3639 24.1179H26.3639Z" fill="#00C489"/>
<path d="M27.4118 18.4118C26.7216 18.4118 26.1331 18.8544 25.9146 19.4706H24.7351C24.6332 18.5529 24.2697 17.7132 23.721 17.0276L24.5566 16.1921C25.147 16.4733 25.8756 16.3706 26.364 15.8821C26.9832 15.2629 26.9832 14.2553 26.364 13.636C25.7448 13.0168 24.7371 13.0167 24.1179 13.636C23.6299 14.1241 23.5267 14.8531 23.8079 15.4434L22.9723 16.2789C22.2868 15.7302 21.4471 15.3668 20.5294 15.2649V14.0854C22.1874 13.4718 21.7901 11.0338 20 11C18.2096 11.034 17.8128 13.4721 19.4706 14.0854V15.2649C18.5529 15.3668 17.7132 15.7302 17.0277 16.2789L16.1921 15.4434C16.4733 14.8531 16.3701 14.1241 15.8821 13.636C14.33 12.2077 12.2083 14.3317 13.636 15.8821C14.1258 16.3719 14.8546 16.4726 15.4434 16.1921L16.2789 17.0276C15.7303 17.7132 15.3668 18.5529 15.2649 19.4706H14.0854C13.4718 17.8126 11.0338 18.2099 11 20C11.034 21.7904 13.4721 22.1872 14.0854 20.5294H15.2648C15.377 21.5392 15.806 22.4548 16.4499 23.1743C16.7196 22.2097 17.4964 21.2998 18.4228 20.8818C17.2086 19.5462 18.1771 17.3465 20 17.353C21.8229 17.3464 22.7916 19.5465 21.5772 20.8818C22.5037 21.2999 23.2804 22.2096 23.5501 23.1743C24.1941 22.4548 24.623 21.5392 24.7352 20.5294H25.9146C26.5284 22.1876 28.9662 21.7899 29 20C29 19.1242 28.2875 18.4118 27.4118 18.4118Z" fill="#00C489"/>
<path d="M21.0588 19.4706C21.0588 18.8868 20.5838 18.4118 20 18.4118C18.5953 18.47 18.5958 20.4715 20 20.5295C20.5838 20.5295 21.0588 20.0545 21.0588 19.4706Z" fill="#00C489"/>
<path d="M22.6323 23.9695C22.2235 20.8074 17.7751 20.8097 17.3677 23.9695C17.9835 24.3792 18.6995 24.6496 19.4706 24.7352V25.9146C17.8126 26.5281 18.2099 28.9662 20 29C21.7904 28.9661 22.1872 26.5278 20.5294 25.9146V24.7352C21.3004 24.6496 22.0164 24.3792 22.6323 23.9695Z" fill="#00C489"/>
<path d="M16.2775 22.9738L15.4434 23.8079C14.8532 23.5267 14.1241 23.6298 13.6361 24.1178C13.0168 24.7371 13.0168 25.7447 13.6361 26.364C14.2553 26.9831 15.2629 26.9832 15.8822 26.364C16.3702 25.8759 16.4733 25.1468 16.1921 24.5566L17.0262 23.7225C16.7498 23.5014 16.4986 23.2502 16.2775 22.9738Z" fill="#00C489"/>
</svg>
