<svg width="40" height="40" viewBox="0 0 40 40" fill="none" xmlns="http://www.w3.org/2000/svg">
<rect opacity="0.1" width="40" height="40" rx="5" fill="#41F5C0"/>
<path d="M16.9568 18.7077V28.5484C16.9568 28.7282 17.1567 28.8113 17.2618 28.6751L19.3743 25.9381C19.4436 25.8484 19.568 25.8484 19.6372 25.9381L21.7497 28.6751C21.8549 28.8113 22.0548 28.7282 22.0548 28.5484V18.7077H16.9568Z" fill="#41F5C0"/>
<path d="M18.4824 18.7077H16.9568V28.5484C16.9568 28.7282 17.1567 28.8113 17.2618 28.6751L18.4824 27.0937V18.7077Z" fill="#00C389"/>
<path d="M21.3226 26.5784C21.1962 26.5784 21.0938 26.4759 21.0938 26.3495V23.7467C21.0938 23.6203 21.1962 23.5178 21.3226 23.5178C21.449 23.5178 21.5514 23.6203 21.5514 23.7467V26.3495C21.5514 26.4759 21.449 26.5784 21.3226 26.5784Z" fill="#00C389"/>
<path d="M19.4316 23.7661C19.7647 23.7661 20.0348 23.496 20.0348 23.1629C20.0348 22.8298 19.7647 22.5597 19.4316 22.5597C19.0984 22.5597 18.8284 22.8298 18.8284 23.1629C18.8284 23.496 19.0984 23.7661 19.4316 23.7661Z" fill="#00C389"/>
<path d="M19.4891 22.4581C19.3591 22.4577 19.2346 22.3875 19.1661 22.2749C18.7389 21.5723 17.9937 21.1529 17.1726 21.1529C16.9168 21.1529 16.6641 21.1949 16.4214 21.2776C16.3814 21.2912 16.3399 21.2981 16.2981 21.2981C16.1963 21.2981 16.0969 21.2561 16.0254 21.183C15.9532 21.1091 15.9148 21.0115 15.9171 20.908L15.9179 20.8814C15.9183 20.871 15.9186 20.8617 15.9186 20.8524C15.9186 19.8214 15.257 18.9256 14.2721 18.6236C14.1488 18.5857 14.0537 18.4892 14.0178 18.3653L14.0154 18.3571C13.982 18.2428 14.0046 18.1176 14.0757 18.0221C14.3638 17.64 14.5252 17.1875 14.5438 16.7121C14.5636 16.2004 14.4036 15.6773 14.0932 15.2391C14.0386 15.1621 14.0237 15.0626 14.0531 14.9729L14.0662 14.9332C14.0678 14.9285 14.0819 14.8869 14.0944 14.8502C14.1271 14.754 14.2057 14.6816 14.3045 14.6568L14.3482 14.6458C15.3852 14.3853 16.1094 13.4556 16.1094 12.3851C16.1094 12.3739 16.109 12.3628 16.1086 12.3516L16.1078 12.3229C16.1042 12.1929 16.1662 12.0715 16.2735 11.998C16.2795 11.9938 16.3019 11.9792 16.3019 11.9792L16.3124 11.9724C16.3727 11.935 16.4418 11.9153 16.5131 11.9153C16.5636 11.9153 16.6128 11.9251 16.6595 11.9445L16.6656 11.9471C16.9478 12.0636 17.2468 12.1227 17.5542 12.1227C18.2985 12.1227 19.0044 11.7619 19.4425 11.1577C19.5141 11.0591 19.6295 11.0002 19.7513 11.0002C19.8724 11.0002 19.9835 11.0557 20.0562 11.1524C20.5014 11.7448 21.1811 12.0845 21.9209 12.0845C22.0087 12.0845 22.098 12.0797 22.1863 12.0701C22.294 12.0584 22.4093 12.036 22.5387 12.0015C22.5678 11.9937 22.598 11.9897 22.6282 11.9897C22.7012 11.9897 22.7711 12.0122 22.8305 12.0547L22.8436 12.0641C22.8494 12.0683 22.8818 12.0922 22.8818 12.0922C22.9741 12.1595 23.0274 12.2678 23.0244 12.382L23.0233 12.425C23.0229 12.4383 23.0225 12.4498 23.0225 12.4614C23.0225 13.4861 23.7085 14.405 24.6908 14.696C24.8082 14.7307 24.9024 14.8206 24.9426 14.9362C24.983 15.0519 24.9649 15.1807 24.8945 15.2809C24.618 15.6745 24.4718 16.1372 24.4718 16.6188C24.4718 17.1194 24.6287 17.5968 24.9256 17.9996C24.9976 18.0974 25.0187 18.2201 24.9836 18.3363C24.9484 18.4525 24.8628 18.543 24.7487 18.5844C23.8349 18.9162 23.2179 19.7926 23.2134 20.7652C23.2124 20.9746 23.0414 21.145 22.8323 21.145C22.7906 21.145 22.7492 21.1381 22.7092 21.1246C22.4669 21.0423 22.2145 21.0005 21.959 21.0005C21.0899 21.0005 20.2992 21.479 19.8944 22.2496L19.8923 22.2534C19.827 22.3785 19.6987 22.4569 19.5575 22.4581C19.5336 22.4583 19.5145 22.4585 19.5113 22.4585L19.4891 22.4581Z" fill="#00C389"/>
<path d="M20.3 21.1528C20.0442 21.1528 19.7915 21.1947 19.5488 21.2774C19.5087 21.291 19.4672 21.298 19.4254 21.298C19.3237 21.298 19.2243 21.256 19.1528 21.1828C19.0806 21.109 19.0422 21.0113 19.0445 20.9078L19.0453 20.8812C19.0456 20.8708 19.046 20.8615 19.046 20.8522C19.046 19.8212 18.3843 18.9255 17.3995 18.6234C17.2762 18.5855 17.1811 18.489 17.1452 18.3651L17.1428 18.357C17.1094 18.2426 17.1319 18.1174 17.2031 18.022C17.4912 17.6398 17.6526 17.1874 17.6711 16.7119C17.691 16.2002 17.531 15.6772 17.2206 15.2389C17.166 15.1619 17.151 15.0624 17.1805 14.9727L17.1936 14.9331C17.1952 14.9283 17.2093 14.8867 17.2218 14.8501C17.2545 14.7538 17.3331 14.6814 17.4319 14.6566L17.4755 14.6457C18.5125 14.3851 19.2368 13.4555 19.2368 12.3849C19.2368 12.3737 19.2363 12.3626 19.236 12.3515L19.2352 12.3227C19.2316 12.1927 19.2936 12.0713 19.4009 11.9978C19.4069 11.9937 19.4293 11.979 19.4293 11.979L19.4398 11.9722C19.5001 11.9348 19.5692 11.9151 19.6405 11.9151C19.691 11.9151 19.7402 11.9249 19.7869 11.9443L19.793 11.9469C20.0752 12.0634 20.3741 12.1225 20.6816 12.1225C20.9161 12.1225 21.1468 12.0865 21.3666 12.0185C20.8479 11.8933 20.3871 11.5928 20.056 11.1523C19.9833 11.0555 19.8722 11 19.7511 11C19.6293 11 19.5138 11.0589 19.4423 11.1575C19.0042 11.7618 18.2983 12.1225 17.5539 12.1225C17.2465 12.1225 16.9476 12.0634 16.6654 11.9469L16.6593 11.9443C16.6126 11.9249 16.5634 11.9151 16.5129 11.9151C16.4416 11.9151 16.3725 11.9348 16.3122 11.9722L16.3017 11.979C16.3017 11.979 16.2793 11.9937 16.2733 11.9978C16.166 12.0712 16.104 12.1927 16.1075 12.3227L16.1083 12.3515C16.1087 12.3626 16.1091 12.3737 16.1091 12.3849C16.1091 13.4555 15.3849 14.3852 14.3479 14.6457L14.3043 14.6566C14.2055 14.6814 14.1269 14.7538 14.0942 14.8501C14.0817 14.8867 14.0675 14.9283 14.066 14.9331L14.0529 14.9727C14.0234 15.0624 14.0384 15.162 14.093 15.2389C14.4034 15.6771 14.5634 16.2002 14.5435 16.7119C14.525 17.1873 14.3636 17.6398 14.0755 18.022C14.0043 18.1174 13.9817 18.2426 14.0152 18.357L14.0176 18.3651C14.0535 18.489 14.1486 18.5855 14.2719 18.6234C15.2567 18.9255 15.9184 19.8212 15.9184 20.8522C15.9184 20.8615 15.918 20.8708 15.9176 20.8812L15.9168 20.9078C15.9145 21.0113 15.9529 21.109 16.0252 21.1828C16.0967 21.256 16.1961 21.298 16.2978 21.298C16.3397 21.298 16.3812 21.2911 16.4211 21.2774C16.6638 21.1947 16.9166 21.1528 17.1724 21.1528C17.9934 21.1528 18.7386 21.5722 19.1659 22.2747C19.2344 22.3873 19.3588 22.4575 19.4889 22.4579L19.5109 22.4581C19.5142 22.4581 19.5332 22.458 19.5571 22.4578C19.6983 22.4566 19.8266 22.3782 19.892 22.2531L19.894 22.2492C20.1293 21.8013 20.4952 21.4524 20.9308 21.2385C20.7288 21.1824 20.5171 21.1528 20.3 21.1528Z" fill="#00C389"/>
<path d="M19.5057 20.7418C21.7237 20.7418 23.5218 18.9438 23.5218 16.7257C23.5218 14.5077 21.7237 12.7097 19.5057 12.7097C17.2877 12.7097 15.4896 14.5077 15.4896 16.7257C15.4896 18.9438 17.2877 20.7418 19.5057 20.7418Z" fill="#41F5C0"/>
<path d="M19.5058 19.979C21.3026 19.979 22.7591 18.5225 22.7591 16.7257C22.7591 14.929 21.3026 13.4725 19.5058 13.4725C17.7091 13.4725 16.2526 14.929 16.2526 16.7257C16.2526 18.5225 17.7091 19.979 19.5058 19.979Z" fill="#00C389"/>
<path d="M19.2864 14.7247L18.8551 15.5986C18.8106 15.6888 18.7245 15.7514 18.6249 15.7658L17.6606 15.9059C17.46 15.9351 17.3799 16.1817 17.5251 16.3232L18.2229 17.0033C18.2949 17.0736 18.3278 17.1748 18.3108 17.274L18.1461 18.2344C18.1118 18.4342 18.3215 18.5866 18.501 18.4923L19.3635 18.0388C19.4525 17.992 19.559 17.992 19.6481 18.0388L20.5105 18.4923C20.69 18.5866 20.8997 18.4342 20.8655 18.2344L20.7007 17.274C20.6837 17.1748 20.7166 17.0736 20.7887 17.0033L21.4864 16.3232C21.6316 16.1817 21.5515 15.9351 21.3509 15.9059L20.3866 15.7658C20.287 15.7514 20.2009 15.6888 20.1564 15.5986L19.7251 14.7247C19.6354 14.5429 19.3761 14.5429 19.2864 14.7247Z" fill="#41F5C0"/>
<path d="M20.5929 19.5039C20.5024 19.5039 20.4167 19.4499 20.3806 19.3608C20.3333 19.2438 20.3897 19.1105 20.5066 19.063C20.5165 19.0589 21.5014 18.6484 21.7674 17.8311C21.8065 17.7109 21.9356 17.6451 22.0559 17.6843C22.176 17.7234 22.2418 17.8525 22.2026 17.9727C21.8699 18.995 20.7272 19.4675 20.6787 19.4871C20.6505 19.4985 20.6214 19.5039 20.5929 19.5039Z" fill="#41F5C0"/>
<path d="M19.1118 17.4646C19.1288 17.3654 19.0959 17.2642 19.0238 17.194L18.326 16.5138C18.1809 16.3723 18.261 16.1257 18.4616 16.0966L19.4259 15.9565C19.5255 15.942 19.6116 15.8794 19.6561 15.7892L19.9533 15.1871L19.7251 14.7247C19.6354 14.5429 19.3761 14.5429 19.2864 14.7247L18.8551 15.5985C18.8106 15.6887 18.7245 15.7513 18.6249 15.7657L17.6606 15.9059C17.46 15.935 17.3799 16.1816 17.5251 16.3231L18.2228 17.0033C18.2949 17.0735 18.3278 17.1747 18.3108 17.2739L18.1461 18.2343C18.1118 18.4342 18.3215 18.5865 18.501 18.4922L18.9786 18.2411L19.1118 17.4646Z" fill="#41F5C0"/>
<path d="M22.9879 16.7257C22.9879 16.9049 22.9743 17.0808 22.9481 17.2528L23.2504 17.294C23.2785 17.1086 23.2931 16.9189 23.2931 16.7257C23.2931 15.6704 22.8591 14.7147 22.1604 14.0273L22.0392 14.3394C22.6271 14.9631 22.9879 15.803 22.9879 16.7257Z" fill="#00C389"/>
</svg>
