<svg width="40" height="40" viewBox="0 0 40 40" fill="none" xmlns="http://www.w3.org/2000/svg">
<rect opacity="0.1" width="40" height="40" rx="5" fill="#41F5C0"/>
<path d="M27.5 16.25H23.75V15.5C23.75 14.6727 23.0773 14 22.25 14H17.75C16.9227 14 16.25 14.6727 16.25 15.5V16.25H12.5C11.6727 16.25 11 16.9227 11 17.75V20C11 20.8273 11.6727 21.5 12.5 21.5H18.5V21.125C18.5 20.9177 18.6677 20.75 18.875 20.75H21.125C21.3323 20.75 21.5 20.9177 21.5 21.125V21.5H27.5C28.3273 21.5 29 20.8273 29 20V17.75C29 16.9227 28.3273 16.25 27.5 16.25ZM22.25 16.25H17.75V15.5H22.25V16.25Z" fill="#00C389"/>
<path d="M28.7919 21.9047C28.6642 21.8413 28.5114 21.856 28.3986 21.9417C28.132 22.1435 27.8215 22.25 27.4999 22.25H21.5V23.375C21.5 23.5823 21.3323 23.75 21.125 23.75H18.875C18.6677 23.75 18.5 23.5823 18.5 23.375V22.25H12.5C12.1785 22.25 11.8679 22.1435 11.6013 21.9417C11.4881 21.8553 11.3358 21.8406 11.208 21.9047C11.0806 21.9681 11 22.098 11 22.2405V27.5C11 28.3273 11.6727 29 12.5 29H27.5C28.3273 29 29 28.3273 29 27.5V22.2405C29 22.098 28.9194 21.9681 28.7919 21.9047Z" fill="#00C389"/>
</svg>
