<svg width="46" height="46" viewBox="0 0 46 46" fill="none" xmlns="http://www.w3.org/2000/svg">
<g filter="url(#filter0_f_4_43)">
<path d="M36 23C36 30.1797 30.1797 36 23 36C15.8203 36 10 30.1797 10 23C10 15.8203 15.8203 10 23 10C30.1797 10 36 15.8203 36 23Z" fill="url(#paint0_linear_4_43)"/>
</g>
<path d="M38 23C38 31.2843 31.2843 38 23 38C14.7157 38 8 31.2843 8 23C8 14.7157 14.7157 8 23 8C31.2843 8 38 14.7157 38 23Z" fill="url(#paint1_linear_4_43)"/>
<path d="M17.155 27.9999H19.33V20.4699L22.315 27.9999H23.11L26.08 20.4699V27.9999H28.495V17.2749H25.345L22.87 23.9499L20.365 17.2749H17.155V27.9999Z" fill="white"/>
<defs>
<filter id="filter0_f_4_43" x="0" y="0" width="46" height="46" filterUnits="userSpaceOnUse" color-interpolation-filters="sRGB">
<feFlood flood-opacity="0" result="BackgroundImageFix"/>
<feBlend mode="normal" in="SourceGraphic" in2="BackgroundImageFix" result="shape"/>
<feGaussianBlur stdDeviation="5" result="effect1_foregroundBlur_4_43"/>
</filter>
<linearGradient id="paint0_linear_4_43" x1="30.3667" y1="10" x2="12.6" y2="33.4" gradientUnits="userSpaceOnUse">
<stop stop-color="#AA12E0"/>
<stop offset="1" stop-color="#6D12E0"/>
</linearGradient>
<linearGradient id="paint1_linear_4_43" x1="31.5" y1="8" x2="11" y2="35" gradientUnits="userSpaceOnUse">
<stop offset="0.0862612" stop-color="#B600E3"/>
<stop offset="1" stop-color="#6D12E0"/>
</linearGradient>
</defs>
</svg>
