<svg width="60" height="60" viewBox="0 0 60 60" fill="none" xmlns="http://www.w3.org/2000/svg">
<g filter="url(#filter0_i_7550_8)">
<path d="M0 16.7C0 7.47684 7.47685 0 16.7 0H43.3C52.5232 0 60 7.47685 60 16.7V43.3C60 52.5232 52.5232 60 43.3 60H16.7C7.47684 60 0 52.5232 0 43.3V16.7Z" fill="url(#paint0_linear_7550_8)"/>
<path d="M0 16.7C0 7.47684 7.47685 0 16.7 0H43.3C52.5232 0 60 7.47685 60 16.7V43.3C60 52.5232 52.5232 60 43.3 60H16.7C7.47684 60 0 52.5232 0 43.3V16.7Z" fill="url(#paint1_linear_7550_8)" fill-opacity="0.6" style="mix-blend-mode:multiply"/>
</g>
<path d="M29.9996 23.5826C26.4282 23.5826 23.5822 26.4844 23.5822 30.0001C23.5822 33.5715 26.4282 36.4175 29.9996 36.4175C33.5152 36.4175 36.417 33.5715 36.417 30.0001C36.417 26.4844 33.5152 23.5826 29.9996 23.5826ZM29.9996 34.1853C27.7116 34.1853 25.8143 32.3438 25.8143 30.0001C25.8143 27.7121 27.6558 25.8706 29.9996 25.8706C32.2875 25.8706 34.129 27.7121 34.129 30.0001C34.129 32.3438 32.2875 34.1853 29.9996 34.1853ZM38.1469 23.3594C38.1469 22.5224 37.4773 21.8527 36.6402 21.8527C35.8032 21.8527 35.1335 22.5224 35.1335 23.3594C35.1335 24.1965 35.8032 24.8661 36.6402 24.8661C37.4773 24.8661 38.1469 24.1965 38.1469 23.3594ZM42.388 24.8661C42.2764 22.8572 41.8299 21.0715 40.379 19.6206C38.9282 18.1697 37.1424 17.7233 35.1335 17.6117C33.0688 17.5001 26.8746 17.5001 24.8098 17.6117C22.8009 17.7233 21.071 18.1697 19.5643 19.6206C18.1134 21.0715 17.667 22.8572 17.5554 24.8661C17.4438 26.9309 17.4438 33.1251 17.5554 35.1898C17.667 37.1987 18.1134 38.9286 19.5643 40.4353C21.071 41.8862 22.8009 42.3326 24.8098 42.4442C26.8746 42.5559 33.0688 42.5559 35.1335 42.4442C37.1424 42.3326 38.9282 41.8862 40.379 40.4353C41.8299 38.9286 42.2764 37.1987 42.388 35.1898C42.4996 33.1251 42.4996 26.9309 42.388 24.8661ZM39.7094 37.3661C39.3188 38.4822 38.4259 39.3192 37.3657 39.7657C35.6915 40.4353 31.7853 40.2679 29.9996 40.2679C28.1581 40.2679 24.2518 40.4353 22.6335 39.7657C21.5174 39.3192 20.6804 38.4822 20.234 37.3661C19.5643 35.7478 19.7317 31.8416 19.7317 30.0001C19.7317 28.2143 19.5643 24.3081 20.234 22.634C20.6804 21.5737 21.5174 20.7367 22.6335 20.2902C24.2518 19.6206 28.1581 19.788 29.9996 19.788C31.7853 19.788 35.6915 19.6206 37.3657 20.2902C38.4259 20.6809 39.263 21.5737 39.7094 22.634C40.379 24.3081 40.2116 28.2143 40.2116 30.0001C40.2116 31.8416 40.379 35.7478 39.7094 37.3661Z" fill="url(#paint2_linear_7550_8)"/>
<defs>
<filter id="filter0_i_7550_8" x="0" y="-21" width="60" height="81" filterUnits="userSpaceOnUse" color-interpolation-filters="sRGB">
<feFlood flood-opacity="0" result="BackgroundImageFix"/>
<feBlend mode="normal" in="SourceGraphic" in2="BackgroundImageFix" result="shape"/>
<feColorMatrix in="SourceAlpha" type="matrix" values="0 0 0 0 0 0 0 0 0 0 0 0 0 0 0 0 0 0 127 0" result="hardAlpha"/>
<feOffset dy="-25"/>
<feGaussianBlur stdDeviation="10.5"/>
<feComposite in2="hardAlpha" operator="arithmetic" k2="-1" k3="1"/>
<feColorMatrix type="matrix" values="0 0 0 0 0 0 0 0 0 0 0 0 0 0 0 0 0 0 0.0920291 0"/>
<feBlend mode="normal" in2="shape" result="effect1_innerShadow_7550_8"/>
</filter>
<linearGradient id="paint0_linear_7550_8" x1="-0.000377302" y1="0" x2="-0.000377302" y2="60.0008" gradientUnits="userSpaceOnUse">
<stop stop-color="#F1F1F1"/>
<stop offset="1" stop-color="#C3C3C3"/>
</linearGradient>
<linearGradient id="paint1_linear_7550_8" x1="3.69133" y1="7.38266" x2="3.69133" y2="60" gradientUnits="userSpaceOnUse">
<stop stop-opacity="0.01"/>
<stop offset="1" stop-opacity="0.5"/>
</linearGradient>
<linearGradient id="paint2_linear_7550_8" x1="33.7514" y1="61.1688" x2="69.2448" y2="26.1892" gradientUnits="userSpaceOnUse">
<stop stop-color="white"/>
<stop offset="0.147864" stop-color="#F6640E"/>
<stop offset="0.443974" stop-color="#BA03A7"/>
<stop offset="0.733337" stop-color="#6A01B9"/>
<stop offset="1" stop-color="#6B01B9"/>
</linearGradient>
</defs>
</svg>
