<svg width="51" height="47" viewBox="0 0 51 47" fill="none" xmlns="http://www.w3.org/2000/svg">
<path opacity="0.3" d="M48.4921 16.4666L48.492 16.4666L33.7698 15.1813L33.476 15.1556L33.3563 14.8861L27.5384 1.78736C27.5383 1.78725 27.5383 1.78714 27.5382 1.78703C27.1922 1.01202 26.3984 0.5 25.5 0.5C24.6012 0.5 23.8077 1.01235 23.4645 1.78628L23.4644 1.78653L17.6461 14.8861L17.5264 15.1556L17.2326 15.1813L2.50882 16.4666C2.50878 16.4666 2.50874 16.4666 2.50871 16.4666C1.61837 16.5456 0.878397 17.1234 0.606956 17.9194C0.338781 18.7132 0.583879 19.5884 1.24651 20.1473L12.3753 29.5315L12.6102 29.7296L12.5396 30.0287L9.25837 43.9263C9.25836 43.9263 9.25835 43.9263 9.25834 43.9264C9.06647 44.7434 9.39345 45.594 10.1111 46.0929L10.1121 46.0936C10.4988 46.3638 10.9548 46.5 11.4152 46.5C11.8104 46.5 12.2046 46.399 12.5557 46.1969L12.5559 46.1968L25.2508 38.8972L25.5001 38.7538L25.7493 38.8972L38.4418 46.1968C38.4418 46.1968 38.4419 46.1968 38.4419 46.1969C39.206 46.6359 40.1683 46.595 40.8885 46.0932L40.889 46.0929C41.6065 45.5941 41.9335 44.7436 41.7418 43.9268L48.4921 16.4666ZM48.4921 16.4666C49.3823 16.5441 50.1233 17.1218 50.3928 17.9185C50.6615 18.7148 50.416 19.5883 49.7535 20.1474L38.6248 29.5315L38.3899 29.7296L38.4605 30.0287L41.7417 43.9263L48.4921 16.4666Z" stroke="#F8B200"/>
</svg>
