<svg width="26" height="24" viewBox="0 0 26 24" fill="none" xmlns="http://www.w3.org/2000/svg">
<path opacity="0.3" d="M25.932 9.06824C25.7608 8.56112 25.2938 8.20209 24.7436 8.15413L17.2381 7.49779L14.2719 0.80863C14.0529 0.317185 13.5547 0 13 0C12.4454 0 11.9469 0.317185 11.7293 0.80863L8.76309 7.49779L1.25647 8.15413C0.706203 8.20305 0.240239 8.56208 0.0680557 9.06824C-0.103135 9.57535 0.0549634 10.1316 0.471138 10.4831L6.14464 15.2751L4.47181 22.372C4.34942 22.8939 4.55969 23.4335 5.00919 23.7464C5.2508 23.9155 5.53466 24 5.81952 24C6.0643 24 6.30929 23.9373 6.52808 23.8112L13 20.0837L19.4708 23.8112C19.9454 24.0845 20.5423 24.0594 20.9908 23.7464C21.4403 23.4335 21.6506 22.8939 21.5282 22.372L19.8554 15.2751L25.5289 10.4831C25.9449 10.1316 26.1032 9.5765 25.932 9.06824Z" fill="#F8B200"/>
</svg>
