<svg width="57" height="57" viewBox="0 0 57 57" fill="none" xmlns="http://www.w3.org/2000/svg">
<g filter="url(#filter0_i_7550_7)">
<path d="M0 15.7592C0 7.05561 7.05561 0 15.7592 0H40.8606C49.5641 0 56.6197 7.05561 56.6197 15.7592V40.8606C56.6197 49.5641 49.5641 56.6197 40.8606 56.6197H15.7592C7.05561 56.6197 0 49.5641 0 40.8606V15.7592Z" fill="url(#paint0_linear_7550_7)"/>
<path d="M0 15.7592C0 7.05561 7.05561 0 15.7592 0H40.8606C49.5641 0 56.6197 7.05561 56.6197 15.7592V40.8606C56.6197 49.5641 49.5641 56.6197 40.8606 56.6197H15.7592C7.05561 56.6197 0 49.5641 0 40.8606V15.7592Z" fill="url(#paint1_linear_7550_7)" fill-opacity="0.6" style="mix-blend-mode:multiply"/>
</g>
<path d="M41.6856 35.5243C41.8962 35.1031 41.6329 34.7344 41.317 34.6818C37.6308 34.1025 35.9984 30.311 35.893 30.1531C35.6824 29.7318 35.6824 29.4158 35.7877 29.1525C35.9984 28.6786 36.7882 28.4153 37.2622 28.2573C37.4202 28.2046 37.5781 28.152 37.6835 28.0993C38.5787 27.7307 39.0526 27.3094 39.0526 26.7828C39 26.4142 38.7367 26.0456 38.2101 25.835C37.8941 25.7296 37.4728 25.7296 37.1569 25.835C36.6829 26.0456 36.3143 26.1509 35.9457 26.2036C35.7351 26.1509 35.5771 26.0983 35.5244 26.0456C35.6297 24.1498 35.893 21.4642 35.2085 19.9371C33.9446 17.0934 31.3116 15.6716 28.5207 15.6716C28.468 15.6716 28.0467 15.6716 27.9941 15.6716C26.8882 15.6716 23.1494 15.9876 21.359 19.9897C20.6744 21.4642 20.9377 24.2025 21.043 26.0456C20.9377 26.0983 20.7797 26.2036 20.5164 26.2036C20.1478 26.2036 19.7792 26.0983 19.3052 25.835C18.6733 25.5717 17.6728 25.9929 17.5675 26.6775C17.4621 27.0461 17.6728 27.6254 18.8839 28.0993C19.3579 28.31 20.5164 28.5206 20.7797 29.1525C20.885 29.4158 20.885 29.7318 20.6744 30.1531C20.5691 30.311 18.9366 34.1025 15.2504 34.6818C14.9871 34.7344 14.7765 34.9977 14.7765 35.261H14.8291C14.8818 36.3669 17.3042 36.7882 18.41 36.9988C18.5153 37.1041 18.6206 37.7361 18.7786 38.2626C18.8313 38.4733 18.9893 38.7366 19.4105 38.7366C19.8318 38.7366 20.4637 38.4733 21.4643 38.4733C22.8334 38.4733 23.3074 38.7892 24.4132 39.5791C25.2031 40.1057 26.5723 41.1063 28.2574 41.001C29.8898 41.0536 30.9957 40.369 32.1542 39.5791C33.26 38.7892 33.734 38.4733 35.1031 38.4733C36.1563 38.4733 36.6829 38.6839 37.1569 38.6839C37.5255 38.6839 37.7361 38.5259 37.7888 38.21C37.9468 37.7361 38.0521 37.1041 38.1574 36.9462C40.2638 36.6302 41.4223 36.1563 41.6856 35.5243Z" fill="url(#paint2_linear_7550_7)"/>
<defs>
<filter id="filter0_i_7550_7" x="0" y="-21" width="56.6198" height="77.6196" filterUnits="userSpaceOnUse" color-interpolation-filters="sRGB">
<feFlood flood-opacity="0" result="BackgroundImageFix"/>
<feBlend mode="normal" in="SourceGraphic" in2="BackgroundImageFix" result="shape"/>
<feColorMatrix in="SourceAlpha" type="matrix" values="0 0 0 0 0 0 0 0 0 0 0 0 0 0 0 0 0 0 127 0" result="hardAlpha"/>
<feOffset dy="-25"/>
<feGaussianBlur stdDeviation="10.5"/>
<feComposite in2="hardAlpha" operator="arithmetic" k2="-1" k3="1"/>
<feColorMatrix type="matrix" values="0 0 0 0 0 0 0 0 0 0 0 0 0 0 0 0 0 0 0.0920291 0"/>
<feBlend mode="normal" in2="shape" result="effect1_innerShadow_7550_7"/>
</filter>
<linearGradient id="paint0_linear_7550_7" x1="-0.000356046" y1="0" x2="-0.000356046" y2="56.6204" gradientUnits="userSpaceOnUse">
<stop stop-color="#F1F1F1"/>
<stop offset="1" stop-color="#C3C3C3"/>
</linearGradient>
<linearGradient id="paint1_linear_7550_7" x1="3.48337" y1="6.96673" x2="3.48337" y2="56.6197" gradientUnits="userSpaceOnUse">
<stop stop-opacity="0.01"/>
<stop offset="1" stop-opacity="0.5"/>
</linearGradient>
<linearGradient id="paint2_linear_7550_7" x1="11.3937" y1="9.3195" x2="11.3937" y2="41.009" gradientUnits="userSpaceOnUse">
<stop stop-color="#FFFC00"/>
<stop offset="1" stop-color="#FF9000"/>
</linearGradient>
</defs>
</svg>
