<svg width="26" height="24" viewBox="0 0 26 24" fill="none" xmlns="http://www.w3.org/2000/svg">
<path opacity="0.3" d="M24.7001 8.65225L24.7 8.65223L17.1946 7.99589L16.9007 7.97019L16.7811 7.70047L13.8152 1.01215C13.8152 1.01205 13.8152 1.01195 13.8151 1.01184C13.6794 0.707623 13.3646 0.5 13 0.5C12.635 0.5 12.3207 0.707939 12.1865 1.01107L12.1864 1.01131L9.22017 7.70047L9.10056 7.97019L8.80664 7.99589L1.30075 8.65217C0.939905 8.68425 0.647679 8.91759 0.541594 9.22874C0.437787 9.53703 0.531233 9.87938 0.793805 10.1012L6.46727 14.8931L6.70171 15.0912L6.6313 15.3898L4.9586 22.4862C4.95858 22.4863 4.95855 22.4864 4.95853 22.4865C4.88424 22.8038 5.00948 23.1374 5.29489 23.3361L5.29589 23.3368C5.45022 23.4448 5.63321 23.5 5.81952 23.5C5.97916 23.5 6.13767 23.4591 6.2784 23.378L6.27854 23.3779L12.7505 19.6504L13 19.5067L13.2496 19.6505L19.7202 23.3779C20.0277 23.5549 20.4158 23.538 20.7047 23.3364L20.7051 23.3361C20.9905 23.1374 21.1157 22.804 21.0416 22.4867L24.7001 8.65225ZM24.7001 8.65225C25.0608 8.68368 25.353 8.91692 25.4581 9.22784C25.5624 9.53752 25.4688 9.87923 25.2061 10.1013L19.5328 14.8931L19.2983 15.0912L19.3687 15.3898L21.0414 22.4862L24.7001 8.65225Z" stroke="#F8B200"/>
</svg>
