<svg width="116" height="107" viewBox="0 0 116 107" fill="none" xmlns="http://www.w3.org/2000/svg">
<path opacity="0.3" d="M110.351 36.852L110.351 36.8519L76.8651 33.9258L76.5712 33.9001L76.4516 33.6305L63.2182 3.80878C62.3246 1.80488 60.2849 0.5 58.0001 0.5C55.715 0.5 53.6751 1.80506 52.7877 3.8077L52.7876 3.80795L39.5539 33.6305L39.4342 33.9001L39.1404 33.9258L5.65005 36.8519C5.64981 36.8519 5.64957 36.8519 5.64933 36.852C3.38388 37.0535 1.47918 38.5285 0.777194 40.5897C0.080825 42.6516 0.721344 44.9175 2.4245 46.3553C2.42451 46.3553 2.42452 46.3553 2.42453 46.3553L27.737 67.7195L27.9717 67.9175L27.9012 68.2164L20.4379 99.8563L110.351 36.852ZM110.351 36.852C112.617 37.0493 114.525 38.5245 115.223 40.5893C115.919 42.6564 115.278 44.9175 113.576 46.3554L88.2631 67.7195L88.0285 67.9175L88.0989 68.2164L95.5622 99.8563C96.0602 101.978 95.2073 104.178 93.3659 105.459L93.3655 105.459C91.524 106.744 89.0696 106.847 87.1188 105.725L58.2495 89.1066L58.0001 88.963L57.7507 89.1066L28.8759 105.725L28.8758 105.725C27.9776 106.242 26.971 106.5 25.964 106.5C24.7916 106.5 23.6259 106.153 22.6352 105.46L22.6342 105.459M110.351 36.852L22.6342 105.459M22.6342 105.459C20.7929 104.178 19.94 101.978 20.4378 99.8568L22.6342 105.459Z" stroke="#F8B200"/>
</svg>
