<svg width="24" height="22" viewBox="0 0 24 22" fill="none" xmlns="http://www.w3.org/2000/svg">
<path opacity="0.3" d="M23.9372 8.31255C23.7792 7.8477 23.3481 7.51859 22.8402 7.47462L15.9121 6.87297L13.1741 0.741244C12.972 0.290753 12.512 0 12 0C11.488 0 11.0279 0.290753 10.827 0.741244L8.089 6.87297L1.15982 7.47462C0.65188 7.51946 0.221759 7.84857 0.0628207 8.31255C-0.0952018 8.77741 0.0507355 9.28727 0.434897 9.60955L5.67198 14.0022L4.12782 20.5077C4.01485 20.986 4.20894 21.4807 4.62386 21.7676C4.84689 21.9226 5.10892 22 5.37186 22C5.59782 22 5.82396 21.9426 6.02592 21.827L12 18.4101L17.973 21.827C18.4112 22.0774 18.9622 22.0545 19.3762 21.7676C19.7911 21.4807 19.9852 20.986 19.8722 20.5077L18.3281 14.0022L23.5651 9.60955C23.9491 9.28727 24.0952 8.77846 23.9372 8.31255Z" fill="#F8B200"/>
</svg>
