<svg width="56" height="56" viewBox="0 0 56 56" fill="none" xmlns="http://www.w3.org/2000/svg">
<g filter="url(#filter0_i_7550_5)">
<path d="M0 15.5867C0 6.97839 6.97839 0 15.5867 0H40.4133C49.0216 0 56 6.97839 56 15.5867V40.4133C56 49.0216 49.0216 56 40.4133 56H15.5867C6.97839 56 0 49.0216 0 40.4133V15.5867Z" fill="url(#paint0_linear_7550_5)"/>
<path d="M0 15.5867C0 6.97839 6.97839 0 15.5867 0H40.4133C49.0216 0 56 6.97839 56 15.5867V40.4133C56 49.0216 49.0216 56 40.4133 56H15.5867C6.97839 56 0 49.0216 0 40.4133V15.5867Z" fill="url(#paint1_linear_7550_5)" fill-opacity="0.6" style="mix-blend-mode:multiply"/>
</g>
<path d="M38.5729 22.5833C39.6145 21.8021 40.552 20.8646 41.2812 19.7708C40.3437 20.1875 39.25 20.5 38.1562 20.6042C39.302 19.9271 40.1354 18.8854 40.552 17.5833C39.5104 18.2083 38.3125 18.6771 37.1145 18.9375C36.0729 17.8438 34.6666 17.2188 33.1041 17.2188C30.0833 17.2188 27.6354 19.6667 27.6354 22.6875C27.6354 23.1042 27.6875 23.5208 27.7916 23.9375C23.2604 23.6771 19.1979 21.4896 16.4895 18.2083C16.0208 18.9896 15.7604 19.9271 15.7604 20.9688C15.7604 22.8438 16.6979 24.5104 18.2083 25.5C17.3229 25.4479 16.4375 25.2396 15.7083 24.8229V24.875C15.7083 27.5313 17.5833 29.7188 20.0833 30.2396C19.6666 30.3438 19.1458 30.4479 18.677 30.4479C18.3125 30.4479 18 30.3958 17.6354 30.3438C18.3125 32.5313 20.3437 34.0938 22.7395 34.1458C20.8645 35.6042 18.5208 36.4896 15.9687 36.4896C15.5 36.4896 15.0833 36.4375 14.6666 36.3854C17.0625 37.9479 19.927 38.8333 23.052 38.8333C33.1041 38.8333 38.5729 30.5521 38.5729 23.3125C38.5729 23.0521 38.5729 22.8438 38.5729 22.5833Z" fill="url(#paint2_linear_7550_5)"/>
<defs>
<filter id="filter0_i_7550_5" x="0" y="-21" width="56" height="77" filterUnits="userSpaceOnUse" color-interpolation-filters="sRGB">
<feFlood flood-opacity="0" result="BackgroundImageFix"/>
<feBlend mode="normal" in="SourceGraphic" in2="BackgroundImageFix" result="shape"/>
<feColorMatrix in="SourceAlpha" type="matrix" values="0 0 0 0 0 0 0 0 0 0 0 0 0 0 0 0 0 0 127 0" result="hardAlpha"/>
<feOffset dy="-25"/>
<feGaussianBlur stdDeviation="10.5"/>
<feComposite in2="hardAlpha" operator="arithmetic" k2="-1" k3="1"/>
<feColorMatrix type="matrix" values="0 0 0 0 0 0 0 0 0 0 0 0 0 0 0 0 0 0 0.0920291 0"/>
<feBlend mode="normal" in2="shape" result="effect1_innerShadow_7550_5"/>
</filter>
<linearGradient id="paint0_linear_7550_5" x1="-0.000352149" y1="0" x2="-0.000352149" y2="56.0007" gradientUnits="userSpaceOnUse">
<stop stop-color="#F1F1F1"/>
<stop offset="1" stop-color="#C3C3C3"/>
</linearGradient>
<linearGradient id="paint1_linear_7550_5" x1="3.44524" y1="6.89048" x2="3.44524" y2="56" gradientUnits="userSpaceOnUse">
<stop stop-opacity="0.01"/>
<stop offset="1" stop-opacity="0.5"/>
</linearGradient>
<linearGradient id="paint2_linear_7550_5" x1="14.6665" y1="17.2188" x2="14.6665" y2="38.8336" gradientUnits="userSpaceOnUse">
<stop stop-color="#4ECEF6"/>
<stop offset="0.537697" stop-color="#4E8FF6"/>
<stop offset="1" stop-color="#226ADB"/>
</linearGradient>
</defs>
</svg>
