<svg width="40" height="40" viewBox="0 0 40 40" fill="none" xmlns="http://www.w3.org/2000/svg">
<rect opacity="0.1" width="40" height="40" rx="5" fill="#41F5C0"/>
<path d="M28.613 19.6377L25.1893 22.9311L25.9854 27.5819C26.0318 27.8042 26.0121 28.0351 25.9288 28.2467C25.8455 28.4583 25.7021 28.6418 25.5158 28.7751C25.3294 28.9084 25.108 28.9859 24.8782 28.9982C24.6483 29.0106 24.4197 28.9574 24.2197 28.8449L20 26.6434L15.7683 28.839C15.5936 28.932 15.3982 28.9807 15.1997 28.9807C14.9453 28.981 14.6968 28.9048 14.4875 28.7623C14.3028 28.6304 14.1602 28.4492 14.0765 28.2401C13.9927 28.031 13.9712 27.8026 14.0146 27.5819L14.8226 22.937L11.387 19.6377C11.2179 19.4845 11.0971 19.2865 11.039 19.0674C10.9809 18.8484 10.9879 18.6174 11.0591 18.4022C11.1304 18.1869 11.263 17.9964 11.4411 17.8534C11.6191 17.7104 11.8352 17.6209 12.0634 17.5956L16.7918 16.9169L18.9107 12.691C19.0059 12.4849 19.1592 12.3102 19.3524 12.1877C19.5455 12.0651 19.7703 12 20 12C20.2297 12 20.4545 12.0651 20.6476 12.1877C20.8408 12.3102 20.9941 12.4849 21.0893 12.691L23.2082 16.9169L27.9366 17.5956C28.1648 17.6209 28.3809 17.7104 28.5589 17.8534C28.737 17.9964 28.8696 18.1869 28.9409 18.4022C29.0121 18.6174 29.0191 18.8484 28.961 19.0674C28.9029 19.2865 28.7821 19.4845 28.613 19.6377Z" fill="#00C389"/>
</svg>
