<svg width="44" height="13" viewBox="0 0 44 13" fill="none" xmlns="http://www.w3.org/2000/svg">
<path d="M0.22998 11.9999H2.02998V3.8999L5.28498 11.9999H5.92998L9.12498 3.8999V11.9999H11.12V1.2749H8.47998L5.71998 8.5949L2.89998 1.2749H0.22998V11.9999Z" fill="#A904E3"/>
<path d="M15.9765 12.1499C17.2515 12.1499 18.0765 11.5349 18.4665 10.7699V11.9999H20.2815V4.1549H18.4665V8.8199C18.4665 10.0649 17.6115 10.6949 16.6365 10.6949C15.5865 10.6949 15.0915 10.1549 15.0915 8.9699V4.1549H13.2765V9.1799C13.2765 11.2649 14.4315 12.1499 15.9765 12.1499Z" fill="#A904E3"/>
<path d="M22.4335 11.9999H24.2485V7.9199C24.2485 6.2549 25.2085 5.7449 26.7985 5.7299V4.0349C25.4785 4.0499 24.7435 4.6349 24.2485 5.6249V4.1549H22.4335V11.9999Z" fill="#A904E3"/>
<path d="M30.3039 12.1499C31.5039 12.1499 32.1939 11.7149 32.7039 11.0399V11.9999H34.4889V6.8549C34.4889 4.7099 33.1089 3.9899 31.3539 3.9899C29.5989 3.9899 28.1439 4.7549 27.9939 6.5849H29.7489C29.8389 5.8049 30.3039 5.3549 31.2489 5.3549C32.3139 5.3549 32.6739 5.8799 32.6739 6.9299V7.3349H31.6989C29.4489 7.3349 27.6789 7.9949 27.6789 9.8249C27.6789 11.4599 28.8639 12.1499 30.3039 12.1499ZM30.7389 10.8449C29.8389 10.8449 29.4789 10.4099 29.4789 9.7499C29.4789 8.7899 30.3639 8.4749 31.7439 8.4749H32.6739V9.2549C32.6739 10.2599 31.8489 10.8449 30.7389 10.8449Z" fill="#A904E3"/>
<path d="M39.5092 12.1499C40.6642 12.1499 41.6692 11.4599 42.0892 10.6799V11.9999H43.9042V0.524902H42.0892V5.3549C41.6542 4.5749 40.8592 3.9899 39.5842 3.9899C37.5442 3.9899 36.0592 5.5799 36.0592 8.0849V8.2049C36.0592 10.7549 37.5442 12.1499 39.5092 12.1499ZM39.9592 10.7099C38.7892 10.7099 37.9192 9.8849 37.9192 8.1599V8.0399C37.9192 6.3449 38.6992 5.4149 40.0342 5.4149C41.3542 5.4149 42.1492 6.2699 42.1492 7.9949V8.1149C42.1492 9.8699 41.2192 10.7099 39.9592 10.7099Z" fill="#A904E3"/>
</svg>
